<svg viewBox="0 0 83 16" xmlns="http://www.w3.org/2000/svg"><g fill-rule="evenodd" fill="#fff"><path d="M2.418 3.51L.065 15.125h4.653l1.17-5.966c.166-.842.377-1.518.7-1.873.321-.354.579-.686 1.332-.664.769.023 1.142.412 1.208 1.078.04.4-.05.886-.162 1.415l-1.272 6.012 4.723.004 1.181-5.972c.145-.73.275-1.556.851-2.095.287-.266.684-.44 1.124-.458.853-.035 1.464.747 1.26 1.711l-1.442 6.808h4.681L21.55 8.15c.13-.612.21-1.17.21-1.655.006-1.868-1.682-3.492-3.956-3.462-1.517.02-2.777.62-4.047 2.092-.678-1.808-2.08-2.074-3.25-2.092-1.576-.025-3.149.778-3.876 2.042l.016-1.564-4.23-.003zm24.976 3.836c.306-.87.983-1.462 2.068-1.462.542 0 1.118.159 1.077.875-.02.366-.313.711-.807.811-.966.195-2.498.221-3.519.365-1.289.18-2.792.508-3.691 1.366-.648.619-1.07 1.426-1.115 2.585-.078 2.01 1.707 3.489 3.959 3.479 1.675-.008 3.08-.687 3.496-1.198l-.003.959h4.822l-.078-.211c-.11-.362-.27-.73-.066-1.663l1.204-5.483c.247-1.126.26-2.335-.506-3.268-.69-.84-2.305-1.406-4.104-1.467-2.503-.086-4.345.37-5.46 1.093-1.242.807-1.746 2.15-1.825 3.222l4.548-.003zm1.5 4.431a2.72 2.72 0 0 1-1.283.73c-.887.206-1.878-.067-1.829-.893.076-1.265 1.998-1.456 2.682-1.577.684-.122.932-.15 1.272-.234-.107 1.008-.399 1.536-.843 1.974zm7.051-8.257l-.524 2.62h1.444l-1.219 5.44c-.545 2.435.526 3.545 3.27 3.545l2.384.001.525-3.273c-1.232-.146-1.693.071-1.447-1.202l.873-4.519h1.88l.523-2.603h-1.926L42.534 0h-.992c-1.465 1.113-2.447 1.891-3.8 2.053l-.334 1.467h-1.463zM69.09 8h-4.692c.076-.862-.195-1.554-1.313-1.526-1.305-.103-2.003 1.197-2.261 2.602-.237.996-.304 3.016 1.392 2.852 1.042-.02 1.54-.845 1.791-1.857h4.7c-.658 2.798-2.167 5.483-6.758 5.333-3.644 0-6.339-2.252-5.865-6.019.484-3.846 3.118-6.345 7.288-6.345 2.29 0 5.092.602 5.614 3.23.107.54.144 1.101.104 1.73"/><path d="M47.034 10.408c-.23.975.443 1.805 1.566 1.828.839.017 1.44-.331 1.784-.87h4.512c-.964 3.194-4.449 4.202-6.624 4.013-4.257.03-6.077-2.33-5.745-5.966.364-3.847 3.785-6.519 7.36-6.344 3.696-.035 5.85 1.565 5.585 6.13-.045.392-.106.846-.185 1.21h-8.253zm4.158-2.607h-3.547c.269-.92 1.028-1.587 1.953-1.585 1.31.003 1.656.73 1.594 1.585zm25.401-4.767c-4.272.034-6.911 2.584-7.263 6.415-.34 3.698 1.434 5.902 5.69 5.955 4.234.053 6.786-2.465 7.418-6.287.725-4.379-2.066-6.113-5.845-6.083m1.146 6.272c-.293 1.294-.751 2.807-2.305 2.858-1.776.058-1.634-2.03-1.46-2.961.253-1.351 1.033-3.044 2.422-3.044 1.545 0 1.642 1.83 1.343 3.147"/></g></svg>